<svg width="56" height="41" viewBox="0 0 56 41" fill="none" xmlns="http://www.w3.org/2000/svg">
<path fill-rule="evenodd" clip-rule="evenodd" d="M39.633 25.9725C39.633 27.0625 38.8233 27.0625 38.5104 27.0625H32.7778C32.2696 27.0625 31.8576 27.4626 31.8576 27.956V28.0364L31.287 27.3752C31.1119 27.1711 30.8522 27.0531 30.5786 27.0536H29.5296C28.407 27.0536 28.407 26.2673 28.407 25.9636V21.4963C28.4017 21.3331 28.4235 21.1703 28.4714 21.0138C28.5726 20.71 28.8394 20.4152 29.5296 20.4152H32.0048H38.5104C39.633 20.4152 39.633 21.2014 39.633 21.5052V25.9725ZM27.0727 19.7898H22.2786C22.0182 19.8066 21.7774 19.93 21.6161 20.1293L20.8892 20.9781V20.71C20.8503 20.2018 20.411 19.8104 19.8862 19.8166C19.2218 19.9067 18.608 19.4568 18.5151 18.8118C18.4996 18.7034 18.4996 18.5935 18.5151 18.4853L18.4599 13.3747C18.3671 12.7296 18.8304 12.1336 19.4948 12.0435C19.6063 12.0284 19.7195 12.0284 19.831 12.0435H29.9528C30.6172 11.9533 31.2311 12.4032 31.3239 13.0483C31.3394 13.1566 31.3394 13.2665 31.3239 13.3747V18.4496C31.3276 18.5121 31.3276 18.5747 31.3239 18.6372H29.5296C28.5653 18.606 27.6469 19.0369 27.0727 19.7898ZM41.4734 26.0082V21.5409C41.5897 20.0649 40.4515 18.7769 38.9314 18.664C38.7913 18.6536 38.6505 18.6536 38.5104 18.664H33.1458V18.4764V13.3747C33.2562 11.7598 31.9973 10.3638 30.3341 10.2565C30.2011 10.2479 30.0675 10.2479 29.9344 10.2565H19.8126C18.1494 10.1493 16.7116 11.3717 16.6012 12.9866C16.5923 13.1158 16.5923 13.2455 16.6012 13.3747V18.4496C16.4874 19.9048 17.5241 21.2084 19.0028 21.4695V23.3993C19.0029 23.7755 19.2457 24.1113 19.6101 24.2392C19.7104 24.2745 19.8162 24.2927 19.923 24.2928C20.1966 24.2932 20.4563 24.1753 20.6315 23.9712L22.7111 21.5588H26.5758V26.0261C26.4702 27.5029 27.6174 28.7832 29.1384 28.8857C29.2686 28.8946 29.3994 28.8943 29.5296 28.8852H30.1645L32.0784 31.1099C32.4027 31.4898 32.9827 31.5427 33.374 31.2278C33.5854 31.0577 33.7076 30.8049 33.707 30.5381V28.8852H38.5104C40.0305 28.9981 41.3571 27.893 41.4734 26.417C41.4842 26.281 41.4842 26.1443 41.4734 26.0082Z" fill="white"/>
<mask id="mask0" mask-type="alpha" maskUnits="userSpaceOnUse" x="0" y="0" width="56" height="41">
<path fill-rule="evenodd" clip-rule="evenodd" d="M0 0.00140381H55.9289V40.3167H0V0.00140381Z" fill="white"/>
</mask>
<g mask="url(#mask0)">
<path fill-rule="evenodd" clip-rule="evenodd" d="M52.0148 38.4884H3.89593C2.46051 38.4884 1.84793 37.8797 1.84793 36.4533V34.2546C1.84793 34.1693 1.91753 34.1002 2.00336 34.1002H53.9165C54.0023 34.1002 54.0719 34.1693 54.0719 34.2546V36.4533C54.0719 37.8797 53.4595 38.4884 52.0148 38.4884ZM6.17251 8.21572H49.7474V32.1286C49.7474 32.2139 49.6778 32.2831 49.5919 32.2831H6.32793C6.24211 32.2831 6.17251 32.2139 6.17251 32.1286V8.21572ZM6.17251 3.87287C6.17251 2.44646 6.78508 1.83773 8.22051 1.83773H47.6994C49.1348 1.83773 49.7474 2.44646 49.7474 3.87287V6.39863H6.17251V3.87287ZM55.9096 36.4442V34.2546C55.9096 33.1657 55.0215 32.2831 53.9256 32.2831H53.9165H51.5576V32.1286V3.87287C51.76 1.94653 50.3526 0.221774 48.4141 0.0206445C48.1704 -0.00468116 47.9247 -0.00468116 47.6811 0.0206445H8.22965C6.29113 -0.180485 4.55548 1.21811 4.35308 3.14445C4.32759 3.38658 4.32759 3.63075 4.35308 3.87287V32.1286V32.2831H2.00336C0.907591 32.2831 0.0193623 33.1657 0.0193623 34.2546V36.4442C-0.183038 38.3705 1.22439 40.0953 3.16291 40.2964C3.40656 40.3218 3.65228 40.3218 3.89593 40.2964H52.0239C53.962 40.5027 55.7013 39.1086 55.9087 37.1827C55.9352 36.9373 55.9356 36.6897 55.9096 36.4442Z" fill="white"/>
</g>
<path fill-rule="evenodd" clip-rule="evenodd" d="M27.6543 2.73334C28.418 2.73334 29.037 3.3452 29.037 4.1C29.037 4.85481 28.418 5.46667 27.6543 5.46667C26.8907 5.46667 26.2716 4.85481 26.2716 4.1C26.2716 3.3452 26.8907 2.73334 27.6543 2.73334Z" fill="white"/>
</svg>
