<svg width="64" height="53" viewBox="0 0 64 53" fill="none" xmlns="http://www.w3.org/2000/svg">
<path fill-rule="evenodd" clip-rule="evenodd" d="M31.8419 32.339C31.98 32.339 32.118 32.3125 32.2474 32.2569L43.9232 27.3504C44.4642 27.1229 44.7217 26.4927 44.4978 25.9419C44.2739 25.3912 43.6508 25.1322 43.1109 25.3583L31.8419 30.0941L2.12321 17.6045V17.247C2.12321 16.6521 1.64807 16.1695 1.06223 16.1695C0.476385 16.1695 0 16.6521 0 17.247V18.3246C0 18.7617 0.258715 19.1545 0.655495 19.3199L31.4364 32.2556C31.5658 32.3111 31.7038 32.339 31.8419 32.339Z" fill="white"/>
<path fill-rule="evenodd" clip-rule="evenodd" d="M44.4677 42.6286C44.2096 42.0907 43.5768 41.869 43.0495 42.1354C41.0396 43.1562 37.6809 44.344 32.9315 44.5057V34.7501C32.9315 34.1498 32.4575 33.6629 31.8731 33.6629C31.2887 33.6629 30.8147 34.1498 30.8147 34.7501V44.4969C17.668 44.066 13.426 35.8856 12.8155 34.5245V27.1379C12.8155 26.5377 12.3416 26.0508 11.7572 26.0508C11.1728 26.0508 10.6989 26.5377 10.6989 27.1379V34.7501C10.6989 34.8877 10.7249 35.0254 10.7745 35.1541C10.9594 35.6256 15.4645 46.7119 31.8743 46.7119C37.6102 46.7119 41.6289 45.2832 43.99 44.084C44.5136 43.8189 44.7284 43.1664 44.4677 42.6286Z" fill="white"/>
<mask id="mask0" mask-type="alpha" maskUnits="userSpaceOnUse" x="0" y="0" width="64" height="53">
<path fill-rule="evenodd" clip-rule="evenodd" d="M0 0.0415649H63.3016V53H0V0.0415649Z" fill="white"/>
</mask>
<g mask="url(#mask0)">
<path fill-rule="evenodd" clip-rule="evenodd" d="M47.4762 50.8825C46.8939 50.8825 46.4216 50.4071 46.4216 49.8237C46.4216 49.2405 46.8939 48.7649 47.4762 48.7649C48.0585 48.7649 48.5308 49.2405 48.5308 49.8237C48.5308 50.4058 48.0585 50.8825 47.4762 50.8825ZM31.6508 14.8698C30.3625 14.8698 29.5403 14.243 29.5403 13.811C29.5403 13.3791 30.3625 12.7523 31.6508 12.7523C32.9391 12.7523 33.7613 13.3791 33.7613 13.811C33.7613 14.243 32.9391 14.8698 31.6508 14.8698ZM62.247 15.9298C61.6634 15.9298 61.1924 16.4039 61.1924 16.9885V17.3386L48.5321 22.5703V20.6563L62.65 14.7903C63.0444 14.6277 63.3016 14.2405 63.3016 13.811C63.3016 13.3816 63.0444 12.9968 62.65 12.8317L32.0539 0.121623C31.7955 0.0148788 31.5061 0.0148788 31.2477 0.121623L0.651561 12.8317C0.257163 12.9968 0 13.3816 0 13.811C0 14.2405 0.257163 14.6265 0.651561 14.7903L31.2477 27.5004C31.3763 27.5538 31.5136 27.5811 31.6508 27.5811C31.788 27.5811 31.9253 27.555 32.0539 27.5004L43.1168 22.9042C43.6558 22.682 43.9118 22.0626 43.688 21.5202C43.4655 20.9803 42.8485 20.7246 42.3107 20.9468L31.6508 25.3754L3.81417 13.811L31.6508 2.24659L59.4874 13.811L47.3748 18.8429L35.7728 14.4937C35.8334 14.274 35.8705 14.0468 35.8705 13.811C35.8705 12.0299 34.0172 10.6335 31.6508 10.6335C29.2844 10.6335 27.4311 12.0299 27.4311 13.811C27.4311 15.5922 29.2844 16.9885 31.6508 16.9885C32.7066 16.9885 33.6488 16.6993 34.3807 16.2339L46.4203 20.7469V24.1404V24.1417V46.8398C45.1951 47.2792 44.3099 48.4435 44.3099 49.8225C44.3099 51.5738 45.7305 53.0001 47.475 53.0001C49.2195 53.0001 50.64 51.5738 50.64 49.8225C50.64 48.4435 49.7548 47.2792 48.5296 46.8398V40.8286C51.5587 38.5336 52.6442 35.4765 52.6912 35.3412C52.7295 35.2295 52.7493 35.1128 52.7493 34.9949V27.5811C52.7493 26.9965 52.2782 26.5223 51.6947 26.5223C51.1111 26.5223 50.64 26.9965 50.64 27.5811V34.7988C50.4571 35.2481 49.8228 36.632 48.5296 37.9986V24.8603L62.6463 19.0279C63.042 18.8653 63.2991 18.4768 63.2991 18.0485V16.9898C63.3016 16.4039 62.8305 15.9298 62.247 15.9298Z" fill="white"/>
</g>
</svg>
