<svg width="50" height="48" viewBox="0 0 50 48" fill="none" xmlns="http://www.w3.org/2000/svg">
<mask id="mask0" mask-type="alpha" maskUnits="userSpaceOnUse" x="0" y="0" width="50" height="48">
<path fill-rule="evenodd" clip-rule="evenodd" d="M0 0H49.2333V48H0V0Z" fill="white"/>
</mask>
<g mask="url(#mask0)">
<path fill-rule="evenodd" clip-rule="evenodd" d="M43.2749 34.9828C42.9969 34.9075 42.7104 34.8694 42.4226 34.8695C40.3807 35.0356 38.6955 36.5458 38.2923 38.5705C37.9729 39.7075 38.0354 40.9192 38.4704 42.0168C38.8718 43.0729 39.7425 43.8772 40.8211 44.1882L44.305 45.1324C41.1281 47.0409 37.0179 45.9917 35.1248 42.7891C34.2357 41.2849 33.9611 39.4913 34.359 37.7869C34.4303 37.4699 34.3348 37.1382 34.1061 36.9088L12.9965 15.6088C12.6968 15.325 12.2486 15.2714 11.8914 15.4766C10.9243 15.991 9.84739 16.2601 8.75397 16.2603C5.93628 16.2627 3.41944 14.4843 2.46042 11.8133L4.59574 13.0124C5.09351 13.2934 5.65485 13.4397 6.22532 13.4372C7.95932 13.3366 9.51023 12.3158 10.2993 10.7558C11.573 8.46156 11.0766 5.73296 9.20352 4.67551L6.47818 3.11766C9.96094 1.86347 13.7927 3.69312 15.0368 7.20407C15.4685 8.42273 15.5438 9.74077 15.2536 11.0013C15.1823 11.3183 15.2778 11.6501 15.5064 11.8794L36.6629 33.1983C36.952 33.4903 37.3956 33.5591 37.7586 33.3683C38.7258 32.8542 39.8026 32.5853 40.896 32.5846C43.2676 32.5827 45.4626 33.8473 46.6651 35.908L43.2749 34.9828ZM18.9997 30.4415L17.3889 28.8175L20.4045 25.7773L22.0154 27.4012L18.9997 30.4415ZM18.8218 34.7467L17.5856 33.491L17.1079 33.0095L13.1744 29.0157L14.111 28.0716L19.7302 33.812L18.8218 34.7467ZM5.1202 46.0766L1.90787 42.857L13.0433 31.6594L14.6542 33.2834L16.1901 34.8884L5.1202 46.0766ZM37.5994 8.45212C37.768 8.28099 37.8652 8.05121 37.871 7.81009L37.9458 5.28921L43.2561 2.10742L45.5038 4.37338L42.4132 9.71728L39.8658 9.8117C39.6267 9.8176 39.3987 9.91555 39.2289 10.0855L27.8032 21.5947L26.1924 19.9708L37.5994 8.45212ZM49.1282 36.8428C48.7149 35.4755 47.9716 34.233 46.9648 33.2267C45.3613 31.6012 43.1793 30.6901 40.9054 30.6963C39.7433 30.6969 38.5932 30.9346 37.5245 31.395L29.0956 22.8976L40.2872 11.7L42.9377 11.6245C43.2582 11.6147 43.5515 11.44 43.715 11.1618L47.508 4.73216C47.7285 4.36111 47.6705 3.88644 47.3675 3.5803L44.0896 0.275766C43.786 -0.0296667 43.3151 -0.0880861 42.9471 0.134144L36.5692 3.95796C36.2932 4.12271 36.12 4.41835 36.1103 4.7416L36.0354 7.40411L24.8718 18.6395L17.2109 10.9164C18.0152 6.2146 14.8866 1.74569 10.2227 0.934784C8.06176 0.559012 5.84005 1.03274 4.01508 2.25848C3.5865 2.55058 3.47411 3.13749 3.76385 3.56944C3.84522 3.69088 3.95374 3.79155 4.08064 3.86354L8.33253 6.25224C9.26907 6.79041 9.45638 8.39547 8.69778 9.75505C7.93919 11.1146 6.48755 11.8133 5.54164 11.2846L1.59881 9.13191C1.14564 8.88053 0.576106 9.04717 0.326869 9.50402C0.240941 9.66134 0.201372 9.84014 0.212845 10.0194C0.509143 14.7812 4.57853 18.3992 9.30197 18.1005C10.2778 18.0388 11.236 17.8091 12.1349 17.4216L19.1027 24.446L16.0872 27.4862L15.4035 26.8064C14.6467 26.0762 13.4538 26.0762 12.6969 26.8064L11.7604 27.7506C11.0469 28.4509 11.0017 29.5916 11.6574 30.347L0.578096 41.4974C-0.16938 42.2185 -0.195369 43.4138 0.519796 44.1672C0.538761 44.1873 0.558194 44.2069 0.578096 44.226L3.7436 47.4172C4.45877 48.1707 5.64454 48.197 6.3919 47.476C6.41181 47.4569 6.43124 47.4373 6.4502 47.4172L17.5388 36.2479C18.2882 36.909 19.4196 36.8635 20.1143 36.1441L21.0509 35.1999C21.7982 34.479 21.8243 33.2837 21.1092 32.5301C21.0902 32.51 21.0708 32.4905 21.0509 32.4713L20.3672 31.7821L23.3641 28.6947L32.4486 37.853C31.6636 42.5582 34.811 47.0137 39.4781 47.8051C42.2427 48.2736 45.0597 47.3495 47.0211 45.3307C47.365 44.9412 47.3308 44.3445 46.9446 43.9977C46.8448 43.9081 46.7272 43.841 46.5996 43.8011L41.3268 42.3755C40.8101 42.208 40.4012 41.8062 40.2218 41.2897C39.9479 40.5777 39.915 39.7945 40.1282 39.0615C40.5214 37.5792 41.7671 36.5217 42.8161 36.805L48.0326 38.2212C48.1163 38.2335 48.2016 38.2335 48.2855 38.2212C48.8027 38.2276 49.227 37.81 49.2331 37.2886C49.235 37.1336 49.1989 36.9804 49.1282 36.8428Z" fill="white"/>
</g>
</svg>
