<svg width="30" height="30" viewBox="0 0 30 30" fill="none" xmlns="http://www.w3.org/2000/svg">
<path fill-rule="evenodd" clip-rule="evenodd" d="M15 30C23.2843 30 30 23.2843 30 15C30 6.71573 23.2843 0 15 0C6.71573 0 0 6.71573 0 15C0 23.2843 6.71573 30 15 30Z" fill="#ECB44B"/>
<path fill-rule="evenodd" clip-rule="evenodd" d="M3.63635 15C3.63635 8.7341 8.73408 3.63637 15 3.63637C21.2659 3.63637 26.3636 8.7341 26.3636 15C26.3636 21.2659 21.2659 26.3636 15 26.3636C8.73408 26.3636 3.63635 21.2659 3.63635 15ZM6.05411 15C6.05411 19.9328 10.0674 23.9457 15 23.9457C19.9326 23.9457 23.9459 19.9328 23.9459 15C23.9459 10.0672 19.9326 6.05436 15 6.05436C10.0674 6.05436 6.05411 10.0672 6.05411 15Z" fill="white"/>
<path d="M21.0628 14.92H15.9861V8.92112C15.9861 8.4163 15.5697 8.007 15.056 8.007C14.5423 8.007 14.1259 8.4163 14.1259 8.92112V15.8341C14.1259 16.339 14.5423 16.7483 15.056 16.7483H21.0628C21.5765 16.7483 21.993 16.339 21.993 15.8341C21.993 15.3293 21.5765 14.92 21.0628 14.92Z" fill="white"/>
</svg>
