<svg width="30" height="30" viewBox="0 0 30 30" fill="none" xmlns="http://www.w3.org/2000/svg">
<path fill-rule="evenodd" clip-rule="evenodd" d="M15 30C23.2843 30 30 23.2843 30 15C30 6.71573 23.2843 0 15 0C6.71573 0 0 6.71573 0 15C0 23.2843 6.71573 30 15 30Z" fill="#ECB44B"/>
<path d="M15.322 14.4697C17.2779 14.4697 18.8636 12.4516 18.8636 9.96215C18.8636 7.47263 18.343 5.45454 15.322 5.45454C12.301 5.45454 11.7803 7.47263 11.7803 9.96215C11.7803 12.4516 13.366 14.4697 15.322 14.4697Z" fill="white"/>
<path d="M7.94298 20.9863C7.9416 20.7618 7.94021 20.9231 7.94298 20.9863V20.9863Z" fill="black"/>
<path d="M22.1077 21.0379C22.1121 20.9602 22.1092 20.4993 22.1077 21.0379V21.0379Z" fill="black"/>
<path d="M22.0758 20.7842C22.0095 16.4749 21.4631 15.247 17.2823 14.4697C17.2823 14.4697 16.6938 15.2422 15.3221 15.2422C13.9504 15.2422 13.3618 14.4697 13.3618 14.4697C9.22664 15.2385 8.64708 16.4482 8.57087 20.6442C8.56462 20.9869 8.56173 21.0049 8.56061 20.9651C8.56086 21.0396 8.56117 21.1775 8.56117 21.4178C8.56117 21.4178 9.55651 23.4848 15.3221 23.4848C21.0876 23.4848 22.0831 21.4178 22.0831 21.4178C22.0831 21.2634 22.0832 21.156 22.0833 21.083C22.0822 21.1076 22.08 21.0599 22.0758 20.7842Z" fill="white"/>
</svg>
