<svg width="30" height="30" viewBox="0 0 30 30" fill="none" xmlns="http://www.w3.org/2000/svg">
<path fill-rule="evenodd" clip-rule="evenodd" d="M15 30C23.2843 30 30 23.2843 30 15C30 6.71573 23.2843 0 15 0C6.71573 0 0 6.71573 0 15C0 23.2843 6.71573 30 15 30Z" fill="#ECB44B"/>
<path fill-rule="evenodd" clip-rule="evenodd" d="M8.18182 12.6978C8.18182 8.70384 11.4443 5.45454 15.4546 5.45454C19.4647 5.45454 22.7272 8.70384 22.7273 12.6978C22.7273 17.6543 16.2189 24.9309 15.9418 25.2382C15.682 25.5264 15.2276 25.5269 14.9673 25.2382C14.6902 24.9309 8.18182 17.6543 8.18182 12.6978ZM11.3439 12.8739C11.3439 14.8305 13.0461 16.4223 15.1384 16.4223C17.2306 16.4223 18.9328 14.8305 18.9328 12.8739C18.9328 10.9173 17.2306 9.32551 15.1384 9.32551C13.0461 9.32551 11.3439 10.9173 11.3439 12.8739Z" fill="white"/>
</svg>
