<svg width="153" height="45" viewBox="0 0 153 45" fill="none" xmlns="http://www.w3.org/2000/svg">
<path fill-rule="evenodd" clip-rule="evenodd" d="M67 25H63.0433L57.9303 19.8518V25H55V11H57.9303V16.1505L63.0433 11H66.6163L59.7428 17.8524L67 25Z" fill="white"/>
<path fill-rule="evenodd" clip-rule="evenodd" d="M73.6938 19.0504H78.4269L76.111 13.6289H76.0911L73.6938 19.0504ZM74.4742 11H77.6278L84 25H81.0649L79.5681 21.8987H72.3552L70.8566 25H68L74.4742 11Z" fill="white"/>
<path fill-rule="evenodd" clip-rule="evenodd" d="M90.1838 13.8761H87.8256V17.9992H90.1838C90.5457 17.9992 90.8845 17.9733 91.2068 17.9221C91.5309 17.8698 91.8104 17.7686 92.0481 17.6139C92.2891 17.462 92.4766 17.2505 92.6171 16.9828C92.76 16.7128 92.83 16.3623 92.83 15.927C92.83 15.4798 92.76 15.1215 92.6171 14.852C92.4766 14.586 92.2891 14.3767 92.0481 14.2293C91.8104 14.082 91.5309 13.9852 91.2068 13.9408C90.8845 13.898 90.5457 13.8761 90.1838 13.8761ZM92.5223 20.1654H92.6397L96.1994 25.2493H92.7927L89.3161 20.319H87.8256V25.2493H84.8051V11.5355H91.003C91.8617 11.5355 92.5991 11.6593 93.2054 11.9096C93.8163 12.1571 94.3131 12.4901 94.7004 12.8945C95.0838 13.3051 95.3627 13.7754 95.5349 14.307C95.7105 14.838 95.7957 15.3763 95.7957 15.927C95.7957 16.3865 95.7302 16.8461 95.6032 17.2983C95.4767 17.7545 95.2769 18.1719 95.0155 18.5538C94.7524 18.938 94.4176 19.2721 94.0043 19.5517C93.5939 19.8318 93.0993 20.0366 92.5223 20.1654Z" fill="white"/>
<path fill-rule="evenodd" clip-rule="evenodd" d="M101.896 14.0664L97.5285 14.0872V11.5554H109.252V14.0872L104.92 14.0664V25.2269H101.896V14.0664Z" fill="white"/>
<path fill-rule="evenodd" clip-rule="evenodd" d="M117.103 14.1227C116.527 14.1227 115.986 14.2346 115.479 14.4596C114.969 14.6829 114.528 14.9889 114.149 15.3709C113.773 15.755 113.468 16.1994 113.246 16.7029C113.019 17.2085 112.908 17.7491 112.908 18.3262C112.908 18.8989 113.019 19.44 113.246 19.9462C113.468 20.4508 113.773 20.8901 114.149 21.2664C114.528 21.6444 114.969 21.9482 115.479 22.1698C115.986 22.3937 116.527 22.5028 117.103 22.5028C117.682 22.5028 118.219 22.3937 118.72 22.1698C119.223 21.9482 119.662 21.6444 120.042 21.2664C120.416 20.8901 120.716 20.4508 120.935 19.9462C121.152 19.44 121.26 18.8989 121.26 18.3262C121.26 17.7491 121.152 17.2085 120.935 16.7029C120.716 16.1994 120.416 15.755 120.042 15.3709C119.662 14.9889 119.223 14.6829 118.72 14.4596C118.219 14.2346 117.682 14.1227 117.103 14.1227ZM124.227 18.3262C124.227 19.3067 124.037 20.228 123.655 21.0847C123.281 21.9431 122.769 22.6907 122.128 23.3291C121.485 23.9681 120.735 24.4755 119.866 24.8445C118.998 25.2157 118.078 25.4014 117.103 25.4014C116.115 25.4014 115.192 25.2157 114.333 24.8445C113.474 24.4755 112.721 23.9681 112.079 23.3291C111.439 22.6907 110.931 21.9431 110.559 21.0847C110.189 20.228 110 19.3067 110 18.3262C110 17.3402 110.189 16.416 110.559 15.5514C110.931 14.6891 111.439 13.9376 112.079 13.298C112.721 12.6607 113.474 12.1573 114.333 11.7866C115.192 11.4114 116.115 11.2297 117.103 11.2297C118.078 11.2297 118.998 11.4114 119.866 11.7866C120.733 12.1573 121.485 12.6607 122.128 13.298C122.769 13.9376 123.281 14.6891 123.655 15.5514C124.037 16.416 124.227 17.3402 124.227 18.3262Z" fill="white"/>
<path fill-rule="evenodd" clip-rule="evenodd" d="M125.093 22.8486L132.464 14.0663H125.669V11.5356H136.489V13.9121L129.116 22.6967H136.681V25.2274H125.093V22.8486Z" fill="white"/>
<path fill-rule="evenodd" clip-rule="evenodd" d="M142.628 19.417H147.187L144.959 14.1227H144.94L142.628 19.417ZM143.378 11.5555H146.42L152.561 25.227H149.73L148.286 22.1985H141.339L139.896 25.227H137.141L143.378 11.5555Z" fill="white"/>
<path fill-rule="evenodd" clip-rule="evenodd" d="M56.0507 29.9254C55.9085 29.9254 55.7752 29.9553 55.6499 30.0076C55.5229 30.0633 55.4162 30.1375 55.323 30.2354C55.2282 30.3304 55.1548 30.4407 55.1 30.5633C55.043 30.6865 55.0159 30.8221 55.0159 30.9616C55.0159 31.1067 55.043 31.2394 55.1 31.3621C55.1548 31.4869 55.2282 31.5949 55.323 31.6906C55.4162 31.7839 55.5229 31.8588 55.6499 31.9133C55.7752 31.9679 55.9085 31.9954 56.0507 31.9954C56.1941 31.9954 56.3279 31.9679 56.4499 31.9133C56.5752 31.8588 56.6825 31.7839 56.7762 31.6906C56.8682 31.5949 56.9439 31.4869 56.9975 31.3621C57.05 31.2394 57.0766 31.1067 57.0766 30.9616C57.0766 30.8221 57.05 30.6865 56.9975 30.5633C56.9439 30.4407 56.8682 30.3304 56.7762 30.2354C56.6825 30.1375 56.5752 30.0633 56.4499 30.0076C56.3279 29.9553 56.1941 29.9254 56.0507 29.9254ZM57.8105 30.9616C57.8105 31.2057 57.7631 31.4335 57.6688 31.6473C57.5757 31.8531 57.4503 32.0388 57.2917 32.1991C57.133 32.3594 56.9473 32.4798 56.7322 32.572C56.5188 32.6648 56.2907 32.7087 56.0507 32.7087C55.8074 32.7087 55.5816 32.6648 55.3653 32.572C55.1559 32.4798 54.9696 32.3594 54.8104 32.1991C54.6528 32.0388 54.5264 31.8531 54.4361 31.6473C54.3435 31.4335 54.2989 31.2057 54.2989 30.9616C54.2989 30.7208 54.3435 30.4919 54.4361 30.2781C54.5264 30.0661 54.6528 29.8804 54.8104 29.7207C54.9696 29.5638 55.1559 29.4417 55.3653 29.3478C55.5816 29.2572 55.8074 29.2105 56.0507 29.2105C56.2907 29.2105 56.5188 29.2572 56.7322 29.3478C56.9473 29.4417 57.133 29.5638 57.2917 29.7207C57.4503 29.8804 57.5757 30.0661 57.6688 30.2781C57.7631 30.4919 57.8105 30.7208 57.8105 30.9616Z" fill="white"/>
<path fill-rule="evenodd" clip-rule="evenodd" d="M58.9872 30.8779H59.5681C59.654 30.8779 59.7347 30.8723 59.8126 30.8566C59.8945 30.8476 59.9633 30.8223 60.0238 30.7868C60.0825 30.7491 60.131 30.7008 60.1689 30.6299C60.2044 30.5658 60.2236 30.4758 60.2236 30.37C60.2236 30.2637 60.2044 30.1759 60.1689 30.1101C60.131 30.0432 60.0825 29.9937 60.0238 29.956C59.9633 29.9189 59.8945 29.8947 59.8126 29.8818C59.7347 29.8722 59.654 29.866 59.5681 29.866H58.9872V30.8779ZM58.2403 29.2861H59.7714C59.9837 29.2861 60.1649 29.3198 60.3128 29.38C60.4607 29.4424 60.5838 29.5234 60.6764 29.6208C60.7701 29.7231 60.8384 29.8401 60.8808 29.9706C60.9237 30.1045 60.9451 30.2356 60.9451 30.37C60.9451 30.5118 60.9237 30.6451 60.8808 30.7733C60.8384 30.9021 60.7701 31.0186 60.6764 31.1193C60.5838 31.2183 60.4607 31.3015 60.3128 31.3623C60.1649 31.423 59.9837 31.4573 59.7714 31.4573H58.9872V32.6667H58.2403V29.2861Z" fill="white"/>
<path fill-rule="evenodd" clip-rule="evenodd" d="M62.0483 32.0365H63.9622V32.6631H61.325V29.2729H63.8013V29.9012H62.0483V30.6589H63.5952V31.3165H62.0483V32.0365Z" fill="white"/>
<path fill-rule="evenodd" clip-rule="evenodd" d="M65.0217 30.1971V32.6715H64.4328V29.278H65.0217H65.2853L66.8035 31.3885V29.278H67.4346V32.6715H66.8035L65.0217 30.1971Z" fill="white"/>
<path fill-rule="evenodd" clip-rule="evenodd" d="M70.0041 31.5454C70.0041 31.6579 70.0256 31.7546 70.0662 31.8339C70.108 31.9133 70.1622 31.9779 70.2311 32.0252C70.2988 32.0764 70.3779 32.1118 70.4688 32.1349C70.5585 32.1596 70.6551 32.1681 70.7556 32.1681C70.8216 32.1681 70.8956 32.1664 70.969 32.1557C71.0458 32.1405 71.1186 32.1231 71.1824 32.0876C71.2518 32.0612 71.3049 32.0168 71.3495 31.9611C71.3935 31.9031 71.4161 31.8339 71.4161 31.7468C71.4161 31.6573 71.3879 31.5831 71.328 31.5268C71.2693 31.4689 71.1925 31.4211 71.0977 31.3845C71.004 31.3418 70.8956 31.3074 70.7748 31.2821C70.6551 31.2557 70.5309 31.2242 70.41 31.1893C70.2819 31.1589 70.1594 31.1196 70.0386 31.0734C69.9183 31.029 69.8093 30.9711 69.7162 30.8991C69.6196 30.8237 69.5434 30.7337 69.4836 30.6251C69.4254 30.5199 69.3966 30.3866 69.3966 30.2297C69.3966 30.0564 69.4333 29.9051 69.5084 29.7774C69.5824 29.6486 69.6772 29.5412 69.8009 29.4579C69.9206 29.3736 70.0572 29.3083 70.2096 29.2673C70.3615 29.2262 70.5111 29.2104 70.6658 29.2104C70.8414 29.2104 71.0136 29.2262 71.1762 29.2661C71.3388 29.3066 71.4844 29.3696 71.6115 29.4579C71.7379 29.544 71.8396 29.6571 71.9135 29.7977C71.9863 29.9333 72.0247 30.1009 72.0247 30.2955H71.3021C71.2959 30.1948 71.275 30.1099 71.2394 30.0435C71.2016 29.9794 71.153 29.9254 71.0926 29.886C71.0322 29.8511 70.9639 29.8258 70.8843 29.8067C70.8058 29.7932 70.72 29.7848 70.6331 29.7848C70.5715 29.7848 70.5111 29.7909 70.453 29.8039C70.3914 29.8191 70.3367 29.8382 70.2875 29.8697C70.2378 29.9034 70.1978 29.94 70.1656 29.9895C70.1334 30.0384 70.1193 30.0986 70.1193 30.1678C70.1193 30.2353 70.1317 30.2871 70.1571 30.3304C70.1825 30.3664 70.2333 30.4069 70.3056 30.4418C70.3818 30.4727 70.4846 30.507 70.6156 30.543C70.7465 30.579 70.9187 30.6251 71.1316 30.6786C71.1722 30.6887 71.2247 30.7022 71.2919 30.7208C71.3585 30.7354 71.4291 30.759 71.5048 30.7888C71.5787 30.8181 71.6532 30.8569 71.7278 30.9041C71.8023 30.9542 71.8717 31.0149 71.9304 31.0785C71.992 31.1528 72.0422 31.2332 72.0818 31.3294C72.1196 31.4295 72.1376 31.5369 72.1376 31.6635C72.1376 31.8188 72.1077 31.9611 72.0479 32.0966C71.9886 32.2271 71.8983 32.3402 71.7791 32.4358C71.6611 32.5337 71.5132 32.6091 71.3382 32.6648C71.1632 32.721 70.9577 32.7474 70.7279 32.7474C70.5399 32.7474 70.3587 32.7255 70.1825 32.6771C70.0075 32.6293 69.8528 32.5573 69.7196 32.4617C69.5875 32.3604 69.4802 32.2367 69.3983 32.0848C69.3182 31.9324 69.2786 31.7529 69.2826 31.5454H70.0041Z" fill="white"/>
<path fill-rule="evenodd" clip-rule="evenodd" d="M74.0868 29.9254C73.944 29.9254 73.8107 29.9553 73.6843 30.0076C73.5584 30.0633 73.4505 30.1375 73.3563 30.2354C73.2642 30.3304 73.1891 30.4407 73.1344 30.5633C73.0791 30.6865 73.0514 30.8221 73.0514 30.9616C73.0514 31.1067 73.0791 31.2394 73.1344 31.3621C73.1891 31.4869 73.2642 31.5949 73.3563 31.6906C73.4505 31.7839 73.5584 31.8588 73.6843 31.9133C73.8107 31.9679 73.944 31.9954 74.0868 31.9954C74.2302 31.9954 74.3629 31.9679 74.4848 31.9133C74.6096 31.8588 74.718 31.7839 74.8112 31.6906C74.9055 31.5949 74.9777 31.4869 75.0319 31.3621C75.0844 31.2394 75.1104 31.1067 75.1104 30.9616C75.1104 30.8221 75.0844 30.6865 75.0319 30.5633C74.9777 30.4407 74.9055 30.3304 74.8112 30.2354C74.718 30.1375 74.6096 30.0633 74.4848 30.0076C74.3629 29.9553 74.2302 29.9254 74.0868 29.9254ZM75.8427 30.9616C75.8427 31.2057 75.7964 31.4335 75.7026 31.6473C75.61 31.8531 75.4847 32.0388 75.3272 32.1991C75.1691 32.3594 74.9822 32.4798 74.7666 32.572C74.5549 32.6648 74.3268 32.7087 74.0868 32.7087C73.8424 32.7087 73.6143 32.6648 73.4014 32.572C73.1891 32.4798 73.0045 32.3594 72.8465 32.1991C72.6878 32.0388 72.5619 31.8531 72.4733 31.6473C72.3812 31.4335 72.3344 31.2057 72.3344 30.9616C72.3344 30.7208 72.3812 30.4919 72.4733 30.2781C72.5619 30.0661 72.6878 29.8804 72.8465 29.7207C73.0045 29.5638 73.1891 29.4417 73.4014 29.3478C73.6143 29.2572 73.8424 29.2105 74.0868 29.2105C74.3268 29.2105 74.5532 29.2572 74.7666 29.3478C74.9822 29.4417 75.1691 29.5638 75.3272 29.7207C75.4847 29.8804 75.61 30.0661 75.7026 30.2781C75.7964 30.4919 75.8427 30.7208 75.8427 30.9616Z" fill="white"/>
<path fill-rule="evenodd" clip-rule="evenodd" d="M79.1553 31.3883C79.1553 31.8456 79.026 32.1876 78.7703 32.4138C78.5151 32.6348 78.1605 32.7473 77.7083 32.7473C77.2487 32.7473 76.8936 32.6348 76.6401 32.4138C76.3883 32.1933 76.2613 31.8479 76.2613 31.3883V29.2863H77.006V31.3883C77.006 31.4828 77.0167 31.5689 77.0331 31.6578C77.0466 31.7455 77.0811 31.8259 77.1336 31.8968C77.1815 31.9626 77.2538 32.02 77.343 32.0611C77.4345 32.1027 77.5542 32.1229 77.7083 32.1229C77.9708 32.1229 78.1554 32.065 78.2571 31.9441C78.3576 31.8276 78.4106 31.6409 78.4106 31.3883V29.2863H79.1553V31.3883Z" fill="white"/>
<path fill-rule="evenodd" clip-rule="evenodd" d="M81.1148 29.8661H80.5333V30.8825H81.1148C81.2045 30.8825 81.2875 30.8747 81.3683 30.8645C81.4496 30.8499 81.5173 30.824 81.5755 30.7892C81.6353 30.7492 81.6794 30.7003 81.7166 30.63C81.7511 30.5659 81.7697 30.4753 81.7697 30.3701C81.7697 30.2599 81.7511 30.1715 81.7166 30.1069C81.6794 30.0382 81.6353 29.9899 81.5755 29.9533C81.5173 29.9167 81.4496 29.892 81.3683 29.8819C81.2875 29.8723 81.2045 29.8661 81.1148 29.8661ZM81.6923 31.418H81.7206L82.6002 32.6719H81.7595L80.9002 31.4574H80.5333V32.6719H79.788V29.2873H81.3175C81.5303 29.2873 81.7115 29.3199 81.86 29.3801C82.0125 29.4425 82.1338 29.5235 82.2304 29.6203C82.3241 29.7232 82.3935 29.8402 82.437 29.9707C82.4794 30.104 82.5002 30.2357 82.5002 30.3701C82.5002 30.486 82.4839 30.5985 82.4551 30.7104C82.4206 30.8224 82.3738 30.927 82.3066 31.0192C82.2439 31.1171 82.1615 31.1975 82.0587 31.2667C81.956 31.3359 81.8352 31.3843 81.6923 31.418Z" fill="white"/>
<path fill-rule="evenodd" clip-rule="evenodd" d="M86.2065 31.7637C86.1342 31.8971 86.0444 32.0225 85.9394 32.135C85.8361 32.2469 85.7181 32.3454 85.5865 32.4219C85.4584 32.5034 85.3156 32.5642 85.1637 32.6103C85.0101 32.6525 84.8526 32.6772 84.6855 32.6772C84.4478 32.6772 84.2265 32.6311 84.0142 32.5422C83.8076 32.4517 83.6252 32.3313 83.4705 32.1761C83.3153 32.0197 83.1927 31.8391 83.1019 31.6304C83.0115 31.4229 82.9647 31.199 82.9647 30.9616C82.9647 30.7287 83.0115 30.5071 83.1019 30.3012C83.1927 30.0909 83.3153 29.9092 83.4705 29.7556C83.6252 29.5981 83.8076 29.4749 84.0142 29.3861C84.2265 29.2927 84.4478 29.2527 84.6855 29.2527C84.8475 29.2527 85.0022 29.273 85.1524 29.3124C85.3003 29.3557 85.4403 29.4176 85.5674 29.4941C85.6961 29.5683 85.8096 29.6639 85.9129 29.7708C86.0162 29.876 86.1031 29.9947 86.1765 30.1229C86.1031 30.1623 86.045 30.1944 86.0026 30.2163C85.9569 30.2433 85.9157 30.2636 85.8734 30.2844C85.8321 30.3046 85.7858 30.3266 85.7345 30.3519C85.6842 30.3789 85.6204 30.4098 85.5403 30.4481C85.4584 30.3012 85.3427 30.1814 85.1891 30.0948C85.0367 30.0054 84.8695 29.9576 84.6855 29.9576C84.5477 29.9576 84.4139 29.9846 84.2954 30.0386C84.1723 30.0948 84.0645 30.1662 83.973 30.2546C83.881 30.3446 83.8087 30.4503 83.7573 30.5763C83.7043 30.7006 83.6783 30.8272 83.6783 30.9616C83.6783 31.1017 83.7043 31.2327 83.7573 31.3548C83.8087 31.4741 83.881 31.5832 83.973 31.6726C84.0645 31.7637 84.1723 31.8363 84.2954 31.8886C84.4139 31.9415 84.5477 31.9679 84.6855 31.9679C84.8757 31.9679 85.0485 31.9173 85.2049 31.82C85.3618 31.7261 85.4832 31.5978 85.5674 31.4397C85.647 31.4831 85.7125 31.5151 85.7644 31.541C85.8096 31.5663 85.8553 31.5905 85.8965 31.6124C85.94 31.6355 85.9818 31.6563 86.0264 31.6794C86.0704 31.6996 86.1285 31.7283 86.2065 31.7637Z" fill="white"/>
<path fill-rule="evenodd" clip-rule="evenodd" d="M87.3042 32.0365H89.2187V32.6631H86.5821V29.2729H89.0555V29.9012H87.3042V30.6589H88.8494V31.3165H87.3042V32.0365Z" fill="white"/>
<path fill-rule="evenodd" clip-rule="evenodd" d="M94.406 30.976C94.406 31.0064 94.4032 31.0604 94.393 31.1346C94.3817 31.2106 94.3699 31.291 94.3558 31.3754C94.3366 31.4598 94.3185 31.5447 94.292 31.6251C94.2739 31.7084 94.244 31.7719 94.2124 31.8147C94.1395 31.9508 94.0464 32.0763 93.9414 32.1848C93.833 32.2984 93.7127 32.3924 93.5795 32.4739C93.4457 32.5527 93.3023 32.6134 93.1493 32.6584C92.9968 32.7006 92.8354 32.7254 92.6728 32.7254C92.4311 32.7254 92.2064 32.6793 91.9919 32.5831C91.7813 32.4953 91.5944 32.3671 91.4347 32.2101C91.2738 32.0504 91.145 31.8664 91.0564 31.6538C90.9627 31.4434 90.9198 31.2139 90.9198 30.9732C90.9198 30.7336 90.9627 30.5074 91.0564 30.2959C91.145 30.085 91.2738 29.9011 91.4347 29.7379C91.5944 29.5788 91.7813 29.4539 91.9919 29.3616C92.2064 29.2728 92.4311 29.2261 92.6728 29.2261C92.8354 29.2261 92.9929 29.2458 93.1465 29.2908C93.2983 29.3374 93.4406 29.3965 93.5738 29.4747C93.7054 29.5489 93.8223 29.6434 93.9301 29.7559C94.0374 29.8617 94.1299 29.9832 94.2062 30.1176C94.1299 30.1536 94.0695 30.1868 94.0255 30.2099C93.9786 30.2358 93.9329 30.2571 93.8911 30.2785C93.8471 30.3016 93.8019 30.3218 93.7506 30.3494C93.6992 30.3719 93.6326 30.4056 93.5524 30.4484C93.4637 30.2982 93.3412 30.1789 93.1854 30.0867C93.0302 29.9944 92.8597 29.9523 92.6728 29.9523C92.5299 29.9523 92.3944 29.9776 92.2708 30.0321C92.1443 30.085 92.0371 30.1559 91.9467 30.2493C91.8536 30.3404 91.7813 30.4484 91.7271 30.5727C91.6735 30.6964 91.6441 30.8298 91.6441 30.9732C91.6441 31.1166 91.6735 31.2499 91.7271 31.3703C91.7813 31.4991 91.8536 31.606 91.9467 31.6999C92.0371 31.7899 92.1443 31.8664 92.2708 31.9171C92.3944 31.9699 92.5299 31.9953 92.6728 31.9953C92.863 31.9953 93.0358 31.948 93.1939 31.8535C93.352 31.7601 93.4773 31.6353 93.5693 31.4851C93.4829 31.4828 93.4022 31.4806 93.3373 31.4828C93.2678 31.4828 93.2001 31.4851 93.1205 31.4851H92.9059C92.8365 31.4868 92.7823 31.4868 92.7383 31.4868C92.6965 31.4868 92.6728 31.4851 92.6728 31.4851V30.9732H93.0623H93.4999H93.9578C94.1108 30.976 94.2592 30.976 94.406 30.976Z" fill="white"/>
<path fill-rule="evenodd" clip-rule="evenodd" d="M95.5308 32.0365H97.4481V32.6631H94.8098V29.2729H97.2843V29.9012H95.5308V30.6589H97.0817V31.3165H95.5308V32.0365Z" fill="white"/>
<path fill-rule="evenodd" clip-rule="evenodd" d="M99.4944 29.9254C99.351 29.9254 99.2189 29.9553 99.0935 30.0076C98.9671 30.0633 98.8592 30.1375 98.7655 30.2354C98.6724 30.3304 98.5978 30.4407 98.5431 30.5633C98.4877 30.6865 98.4595 30.8221 98.4595 30.9616C98.4595 31.1067 98.4877 31.2394 98.5431 31.3621C98.5978 31.4869 98.6724 31.5949 98.7655 31.6906C98.8592 31.7839 98.9671 31.8588 99.0935 31.9133C99.2189 31.9679 99.351 31.9954 99.4944 31.9954C99.6372 31.9954 99.7682 31.9679 99.893 31.9133C100.017 31.8588 100.124 31.7839 100.219 31.6906C100.314 31.5949 100.387 31.4869 100.441 31.3621C100.494 31.2394 100.521 31.1067 100.521 30.9616C100.521 30.8221 100.494 30.6865 100.441 30.5633C100.387 30.4407 100.314 30.3304 100.219 30.2354C100.124 30.1375 100.017 30.0633 99.893 30.0076C99.7682 29.9553 99.6372 29.9254 99.4944 29.9254ZM101.252 30.9616C101.252 31.2057 101.207 31.4335 101.109 31.6473C101.018 31.8531 100.892 32.0388 100.735 32.1991C100.579 32.3594 100.391 32.4798 100.175 32.572C99.9635 32.6648 99.7366 32.7087 99.4944 32.7087C99.2499 32.7087 99.0224 32.6648 98.8107 32.572C98.5978 32.4798 98.4132 32.3594 98.2551 32.1991C98.0954 32.0388 97.9717 31.8531 97.8814 31.6473C97.7865 31.4335 97.7419 31.2057 97.7419 30.9616C97.7419 30.7208 97.7865 30.4919 97.8814 30.2781C97.9717 30.0661 98.0954 29.8804 98.2551 29.7207C98.4132 29.5638 98.5978 29.4417 98.8107 29.3478C99.0224 29.2572 99.2499 29.2105 99.4944 29.2105C99.7366 29.2105 99.9635 29.2572 100.175 29.3478C100.391 29.4417 100.579 29.5638 100.735 29.7207C100.892 29.8804 101.018 30.0661 101.109 30.2781C101.207 30.4919 101.252 30.7208 101.252 30.9616Z" fill="white"/>
<path fill-rule="evenodd" clip-rule="evenodd" d="M102.194 31.5454C102.194 31.6579 102.212 31.7546 102.255 31.8339C102.298 31.9133 102.351 31.9779 102.418 32.0252C102.486 32.0764 102.569 32.1118 102.655 32.1349C102.747 32.1596 102.842 32.1681 102.943 32.1681C103.009 32.1681 103.082 32.1664 103.158 32.1557C103.234 32.1405 103.305 32.1231 103.373 32.0876C103.436 32.0612 103.494 32.0168 103.539 31.9611C103.584 31.9031 103.606 31.8339 103.606 31.7468C103.606 31.6573 103.578 31.5831 103.517 31.5268C103.458 31.4689 103.381 31.4211 103.286 31.3845C103.191 31.3418 103.085 31.3074 102.964 31.2821C102.842 31.2557 102.72 31.2242 102.597 31.1893C102.468 31.1589 102.346 31.1196 102.228 31.0734C102.106 31.029 102 30.9711 101.904 30.8991C101.807 30.8237 101.733 30.7337 101.674 30.6251C101.613 30.5199 101.585 30.3866 101.585 30.2297C101.585 30.0564 101.621 29.9051 101.695 29.7774C101.771 29.6486 101.869 29.5412 101.988 29.4579C102.11 29.3736 102.245 29.3083 102.398 29.2673C102.551 29.2262 102.701 29.2104 102.854 29.2104C103.032 29.2104 103.202 29.2262 103.365 29.2661C103.53 29.3066 103.671 29.3696 103.799 29.4579C103.924 29.544 104.027 29.6571 104.102 29.7977C104.175 29.9333 104.212 30.1009 104.212 30.2955H103.486C103.485 30.1948 103.462 30.1099 103.426 30.0435C103.388 29.9794 103.341 29.9254 103.279 29.886C103.221 29.8511 103.154 29.8258 103.073 29.8067C102.994 29.7932 102.911 29.7848 102.822 29.7848C102.76 29.7848 102.701 29.7909 102.64 29.8039C102.581 29.8191 102.525 29.8382 102.477 29.8697C102.427 29.9034 102.388 29.94 102.354 29.9895C102.322 30.0384 102.306 30.0986 102.306 30.1678C102.306 30.2353 102.321 30.2871 102.346 30.3304C102.373 30.3664 102.42 30.4069 102.493 30.4418C102.569 30.4727 102.672 30.507 102.807 30.543C102.934 30.579 103.107 30.6251 103.321 30.6786C103.361 30.6887 103.414 30.7022 103.481 30.7208C103.548 30.7354 103.617 30.759 103.691 30.7888C103.767 30.8181 103.84 30.8569 103.916 30.9041C103.991 30.9542 104.057 31.0149 104.12 31.0785C104.182 31.1528 104.232 31.2332 104.271 31.3294C104.305 31.4295 104.326 31.5369 104.326 31.6635C104.326 31.8188 104.297 31.9611 104.236 32.0966C104.175 32.2271 104.088 32.3402 103.968 32.4358C103.85 32.5337 103.704 32.6091 103.523 32.6648C103.351 32.721 103.147 32.7474 102.914 32.7474C102.728 32.7474 102.548 32.7255 102.373 32.6771C102.197 32.6293 102.041 32.5573 101.908 32.4617C101.777 32.3604 101.668 32.2367 101.586 32.0848C101.508 31.9324 101.467 31.7529 101.469 31.5454H102.194Z" fill="white"/>
<path fill-rule="evenodd" clip-rule="evenodd" d="M105.507 30.8779H106.089C106.174 30.8779 106.258 30.8723 106.337 30.8566C106.415 30.8476 106.487 30.8223 106.545 30.7868C106.605 30.7491 106.65 30.7008 106.692 30.6299C106.727 30.5658 106.744 30.4758 106.744 30.37C106.744 30.2637 106.727 30.1759 106.692 30.1101C106.65 30.0432 106.605 29.9937 106.545 29.956C106.487 29.9189 106.415 29.8947 106.337 29.8818C106.258 29.8722 106.174 29.866 106.089 29.866H105.507V30.8779ZM104.764 29.2861H106.295C106.504 29.2861 106.685 29.3198 106.836 29.38C106.984 29.4424 107.107 29.5234 107.199 29.6208C107.293 29.7231 107.358 29.8401 107.402 29.9706C107.446 30.1045 107.469 30.2356 107.469 30.37C107.469 30.5118 107.446 30.6451 107.402 30.7733C107.358 30.9021 107.293 31.0186 107.199 31.1193C107.107 31.2183 106.984 31.3015 106.836 31.3623C106.685 31.423 106.504 31.4573 106.295 31.4573H105.507V32.6667H104.764V29.2861Z" fill="white"/>
<path fill-rule="evenodd" clip-rule="evenodd" d="M108.964 31.2328H110.09L109.538 29.9256H109.532L108.964 31.2328ZM109.151 29.2911H109.901L111.417 32.6666H110.717L110.361 31.9174H108.646L108.29 32.6666H107.608L109.151 29.2911Z" fill="white"/>
<path fill-rule="evenodd" clip-rule="evenodd" d="M112.625 29.912L111.547 29.9165V29.291H114.441V29.9165L113.373 29.912V32.6666H112.625V29.912Z" fill="white"/>
<mask id="mask0" mask-type="alpha" maskUnits="userSpaceOnUse" x="0" y="0" width="153" height="45">
<path fill-rule="evenodd" clip-rule="evenodd" d="M0 45H152.561V0.00561523H0V45Z" fill="white"/>
</mask>
<g mask="url(#mask0)">
<path fill-rule="evenodd" clip-rule="evenodd" d="M114.871 32.6666H115.615V29.2866H114.871V32.6666Z" fill="white"/>
<path fill-rule="evenodd" clip-rule="evenodd" d="M117.267 31.2328H118.393L117.842 29.9256H117.84L117.267 31.2328ZM117.451 29.2911H118.204L119.719 32.6666H119.024L118.666 31.9174H116.95L116.593 32.6666H115.912L117.451 29.2911Z" fill="white"/>
<path fill-rule="evenodd" clip-rule="evenodd" d="M119.999 32.6443V29.2726H120.735V32.0171H122.469V32.6443H119.999Z" fill="white"/>
<path fill-rule="evenodd" clip-rule="evenodd" d="M124.962 31.5454C124.962 31.6579 124.981 31.7546 125.021 31.8339C125.063 31.9133 125.116 31.9779 125.186 32.0252C125.252 32.0764 125.333 32.1118 125.422 32.1349C125.513 32.1596 125.608 32.1681 125.711 32.1681C125.774 32.1681 125.847 32.1664 125.924 32.1557C126 32.1405 126.071 32.1231 126.137 32.0876C126.202 32.0612 126.261 32.0168 126.302 31.9611C126.35 31.9031 126.372 31.8339 126.372 31.7468C126.372 31.6573 126.344 31.5831 126.286 31.5268C126.224 31.4689 126.147 31.4211 126.053 31.3845C125.957 31.3418 125.85 31.3074 125.73 31.2821C125.608 31.2557 125.485 31.2242 125.365 31.1893C125.236 31.1589 125.111 31.1196 124.993 31.0734C124.873 31.029 124.763 30.9711 124.667 30.8991C124.575 30.8237 124.5 30.7337 124.437 30.6251C124.383 30.5199 124.351 30.3866 124.351 30.2297C124.351 30.0564 124.387 29.9051 124.462 29.7774C124.541 29.6486 124.631 29.5412 124.755 29.4579C124.877 29.3736 125.011 29.3083 125.164 29.2673C125.316 29.2262 125.468 29.2104 125.623 29.2104C125.799 29.2104 125.966 29.2262 126.132 29.2661C126.294 29.3066 126.438 29.3696 126.565 29.4579C126.693 29.544 126.793 29.6571 126.866 29.7977C126.94 29.9333 126.978 30.1009 126.978 30.2955H126.257C126.251 30.1948 126.228 30.1099 126.192 30.0435C126.154 29.9794 126.108 29.9254 126.048 29.886C125.987 29.8511 125.918 29.8258 125.841 29.8067C125.76 29.7932 125.679 29.7848 125.586 29.7848C125.527 29.7848 125.466 29.7909 125.406 29.8039C125.345 29.8191 125.291 29.8382 125.241 29.8697C125.191 29.9034 125.153 29.94 125.123 29.9895C125.089 30.0384 125.073 30.0986 125.073 30.1678C125.073 30.2353 125.085 30.2871 125.111 30.3304C125.137 30.3664 125.187 30.4069 125.26 30.4418C125.338 30.4727 125.439 30.507 125.571 30.543C125.702 30.579 125.874 30.6251 126.085 30.6786C126.127 30.6887 126.179 30.7022 126.247 30.7208C126.315 30.7354 126.385 30.759 126.456 30.7888C126.535 30.8181 126.607 30.8569 126.685 30.9041C126.753 30.9542 126.827 31.0149 126.886 31.0785C126.949 31.1528 126.997 31.2332 127.035 31.3294C127.074 31.4295 127.094 31.5369 127.094 31.6635C127.094 31.8188 127.063 31.9611 127 32.0966C126.944 32.2271 126.854 32.3402 126.735 32.4358C126.614 32.5337 126.469 32.6091 126.293 32.6648C126.119 32.721 125.911 32.7474 125.681 32.7474C125.493 32.7474 125.314 32.7255 125.137 32.6771C124.962 32.6293 124.807 32.5573 124.674 32.4617C124.541 32.3604 124.434 32.2367 124.353 32.0848C124.273 31.9324 124.231 31.7529 124.238 31.5454H124.962Z" fill="white"/>
<path fill-rule="evenodd" clip-rule="evenodd" d="M129.041 29.9254C128.897 29.9254 128.767 29.9553 128.638 30.0076C128.514 30.0633 128.405 30.1375 128.312 30.2354C128.217 30.3304 128.146 30.4407 128.087 30.5633C128.033 30.6865 128.004 30.8221 128.004 30.9616C128.004 31.1067 128.033 31.2394 128.087 31.3621C128.146 31.4869 128.217 31.5949 128.312 31.6906C128.405 31.7839 128.514 31.8588 128.638 31.9133C128.767 31.9679 128.897 31.9954 129.041 31.9954C129.184 31.9954 129.316 31.9679 129.439 31.9133C129.561 31.8588 129.672 31.7839 129.764 31.6906C129.86 31.5949 129.933 31.4869 129.987 31.3621C130.041 31.2394 130.065 31.1067 130.065 30.9616C130.065 30.8221 130.041 30.6865 129.987 30.5633C129.933 30.4407 129.86 30.3304 129.764 30.2354C129.672 30.1375 129.561 30.0633 129.439 30.0076C129.316 29.9553 129.184 29.9254 129.041 29.9254ZM130.8 30.9616C130.8 31.2057 130.75 31.4335 130.658 31.6473C130.564 31.8531 130.438 32.0388 130.28 32.1991C130.12 32.3594 129.937 32.4798 129.722 32.572C129.511 32.6648 129.283 32.7087 129.041 32.7087C128.797 32.7087 128.569 32.6648 128.356 32.572C128.146 32.4798 127.957 32.3594 127.799 32.1991C127.642 32.0388 127.518 31.8531 127.427 31.6473C127.333 31.4335 127.288 31.2057 127.288 30.9616C127.288 30.7208 127.333 30.4919 127.427 30.2781C127.518 30.0661 127.642 29.8804 127.799 29.7207C127.957 29.5638 128.146 29.4417 128.356 29.3478C128.569 29.2572 128.797 29.2105 129.041 29.2105C129.283 29.2105 129.511 29.2572 129.722 29.3478C129.937 29.4417 130.12 29.5638 130.28 29.7207C130.438 29.8804 130.565 30.0661 130.658 30.2781C130.75 30.4919 130.8 30.7208 130.8 30.9616Z" fill="white"/>
<path fill-rule="evenodd" clip-rule="evenodd" d="M131.161 32.6443V29.2726H131.891V32.0171H133.629V32.6443H131.161Z" fill="white"/>
<path fill-rule="evenodd" clip-rule="evenodd" d="M137.051 31.3883C137.051 31.8456 136.923 32.1876 136.665 32.4138C136.407 32.6348 136.056 32.7473 135.604 32.7473C135.142 32.7473 134.785 32.6348 134.533 32.4138C134.287 32.1933 134.155 31.8479 134.155 31.3883V29.2863H134.904V31.3883C134.904 31.4828 134.911 31.5689 134.927 31.6578C134.943 31.7455 134.978 31.8259 135.029 31.8968C135.077 31.9626 135.149 32.02 135.237 32.0611C135.329 32.1027 135.449 32.1229 135.604 32.1229C135.867 32.1229 136.05 32.065 136.151 31.9441C136.255 31.8276 136.303 31.6409 136.303 31.3883V29.2863H137.051V31.3883Z" fill="white"/>
<path fill-rule="evenodd" clip-rule="evenodd" d="M138.542 29.912L137.466 29.9165V29.291H140.356V29.9165L139.291 29.912V32.6666H138.542V29.912Z" fill="white"/>
<path fill-rule="evenodd" clip-rule="evenodd" d="M140.783 32.6666H141.53V29.2866H140.783V32.6666Z" fill="white"/>
<path fill-rule="evenodd" clip-rule="evenodd" d="M143.664 29.9254C143.524 29.9254 143.389 29.9553 143.263 30.0076C143.14 30.0633 143.03 30.1375 142.935 30.2354C142.843 30.3304 142.769 30.4407 142.712 30.5633C142.654 30.6865 142.628 30.8221 142.628 30.9616C142.628 31.1067 142.654 31.2394 142.712 31.3621C142.769 31.4869 142.843 31.5949 142.935 31.6906C143.03 31.7839 143.14 31.8588 143.263 31.9133C143.389 31.9679 143.524 31.9954 143.664 31.9954C143.806 31.9954 143.94 31.9679 144.064 31.9133C144.187 31.8588 144.297 31.7839 144.389 31.6906C144.482 31.5949 144.556 31.4869 144.609 31.3621C144.663 31.2394 144.691 31.1067 144.691 30.9616C144.691 30.8221 144.663 30.6865 144.609 30.5633C144.556 30.4407 144.482 30.3304 144.389 30.2354C144.297 30.1375 144.187 30.0633 144.064 30.0076C143.94 29.9553 143.806 29.9254 143.664 29.9254ZM145.422 30.9616C145.422 31.2057 145.377 31.4335 145.282 31.6473C145.187 31.8531 145.064 32.0388 144.904 32.1991C144.746 32.3594 144.56 32.4798 144.346 32.572C144.132 32.6648 143.906 32.7087 143.664 32.7087C143.422 32.7087 143.195 32.6648 142.982 32.572C142.769 32.4798 142.584 32.3594 142.424 32.1991C142.266 32.0388 142.141 31.8531 142.052 31.6473C141.958 31.4335 141.913 31.2057 141.913 30.9616C141.913 30.7208 141.958 30.4919 142.052 30.2781C142.141 30.0661 142.266 29.8804 142.424 29.7207C142.584 29.5638 142.769 29.4417 142.982 29.3478C143.195 29.2572 143.422 29.2105 143.664 29.2105C143.906 29.2105 144.132 29.2572 144.346 29.3478C144.56 29.4417 144.746 29.5638 144.904 29.7207C145.064 29.8804 145.187 30.0661 145.282 30.2781C145.377 30.4919 145.422 30.7208 145.422 30.9616Z" fill="white"/>
<path fill-rule="evenodd" clip-rule="evenodd" d="M146.378 30.1971V32.6715H145.787V29.278H146.378H146.645L148.159 31.3885V29.278H148.791V32.6715H148.159L146.378 30.1971Z" fill="white"/>
<path fill-rule="evenodd" clip-rule="evenodd" d="M149.923 31.5454C149.923 31.6579 149.943 31.7546 149.985 31.8339C150.026 31.9133 150.08 31.9779 150.147 32.0252C150.217 32.0764 150.293 32.1118 150.387 32.1349C150.475 32.1596 150.57 32.1681 150.674 32.1681C150.738 32.1681 150.81 32.1664 150.885 32.1557C150.964 32.1405 151.031 32.1231 151.102 32.0876C151.165 32.0612 151.224 32.0168 151.264 31.9611C151.31 31.9031 151.333 31.8339 151.333 31.7468C151.333 31.6573 151.304 31.5831 151.246 31.5268C151.186 31.4689 151.11 31.4211 151.016 31.3845C150.922 31.3418 150.81 31.3074 150.69 31.2821C150.571 31.2557 150.448 31.2242 150.327 31.1893C150.199 31.1589 150.074 31.1196 149.957 31.0734C149.836 31.029 149.727 30.9711 149.631 30.8991C149.536 30.8237 149.46 30.7337 149.403 30.6251C149.344 30.5199 149.315 30.3866 149.315 30.2297C149.315 30.0564 149.352 29.9051 149.426 29.7774C149.501 29.6486 149.598 29.5412 149.717 29.4579C149.841 29.3736 149.974 29.3083 150.125 29.2673C150.278 29.2262 150.429 29.2104 150.582 29.2104C150.759 29.2104 150.927 29.2262 151.092 29.2661C151.258 29.3066 151.402 29.3696 151.527 29.4579C151.654 29.544 151.756 29.6571 151.83 29.7977C151.906 29.9333 151.941 30.1009 151.941 30.2955H151.218C151.214 30.1948 151.189 30.1099 151.156 30.0435C151.117 29.9794 151.071 29.9254 151.012 29.886C150.95 29.8511 150.877 29.8258 150.802 29.8067C150.719 29.7932 150.638 29.7848 150.55 29.7848C150.49 29.7848 150.429 29.7909 150.367 29.8039C150.308 29.8191 150.252 29.8382 150.205 29.8697C150.155 29.9034 150.116 29.94 150.082 29.9895C150.052 30.0384 150.038 30.0986 150.038 30.1678C150.038 30.2353 150.047 30.2871 150.074 30.3304C150.098 30.3664 150.151 30.4069 150.222 30.4418C150.3 30.4727 150.403 30.507 150.532 30.543C150.662 30.579 150.837 30.6251 151.048 30.6786C151.088 30.6887 151.141 30.7022 151.209 30.7208C151.275 30.7354 151.344 30.759 151.42 30.7888C151.495 30.8181 151.57 30.8569 151.644 30.9041C151.718 30.9542 151.787 31.0149 151.849 31.0785C151.91 31.1528 151.959 31.2332 151.995 31.3294C152.038 31.4295 152.057 31.5369 152.057 31.6635C152.057 31.8188 152.024 31.9611 151.967 32.0966C151.904 32.2271 151.816 32.3402 151.695 32.4358C151.578 32.5337 151.43 32.6091 151.254 32.6648C151.077 32.721 150.876 32.7474 150.647 32.7474C150.457 32.7474 150.276 32.7255 150.1 32.6771C149.923 32.6293 149.769 32.5573 149.639 32.4617C149.504 32.3604 149.397 32.2367 149.315 32.0848C149.234 31.9324 149.198 31.7529 149.198 31.5454H149.923Z" fill="white"/>
<path fill-rule="evenodd" clip-rule="evenodd" d="M29.5353 17.974C30.1145 15.6441 30.4409 13.3575 30.2545 11.6363C29.7882 7.2696 26.4764 6.26891 24.567 6.2706C22.5797 6.27172 19.7354 7.00297 18.9167 11.6233C18.2093 15.6177 20.2491 21.232 23.2668 26.4469C23.2668 26.4469 22.9303 27.2187 22.0541 28.4567C20.7844 30.2477 19.7636 31.2327 19.7636 31.2327C15.8573 24.5181 12.7894 18.645 12.821 14.2975C12.8984 3.11722 19.19 -0.029405 24.567 0.00603246C29.9446 0.040345 36.3729 3.58016 36.3729 14.2002C36.3729 15.3381 35.9613 17.2759 35.6728 18.5573C35.2595 18.5247 34.1462 18.3351 32.9397 18.2215C31.0743 18.0454 29.5353 17.974 29.5353 17.974Z" fill="white"/>
<path fill-rule="evenodd" clip-rule="evenodd" d="M14.7069 26.019C12.391 26.6828 10.2405 27.5473 8.8364 28.566C5.27392 31.1518 6.06038 34.5116 7.01621 36.1575C8.01268 37.872 10.07 39.9594 14.4951 38.3552C18.3196 36.9703 22.1801 32.4023 25.2051 27.1913C25.2051 27.1913 26.0441 27.0951 27.5577 27.2334C29.7494 27.4326 31.1162 27.8207 31.1162 27.8207C27.2331 34.5504 23.6622 40.1321 19.8676 42.2803C10.109 47.8035 4.22946 43.9459 1.572 39.2901C-1.08658 34.632 -1.22434 27.3161 8.00591 22.0067C8.99617 21.4369 10.8852 20.8243 12.1426 20.4323C12.3204 20.8052 12.7133 21.8604 13.2181 22.9579C13.9989 24.6533 14.7069 26.019 14.7069 26.019Z" fill="white"/>
<path fill-rule="evenodd" clip-rule="evenodd" d="M29.4482 34.5875C31.1831 36.2531 33.0101 37.6762 34.5977 38.3776C38.6276 40.1574 41.1529 37.8 42.1065 36.1518C43.0996 34.4373 43.8844 31.617 40.279 28.6008C37.1597 25.9953 31.2599 24.9446 25.2172 24.9423C25.2172 24.9423 24.7153 24.2668 24.0785 22.8915C23.1554 20.9002 22.811 19.5271 22.811 19.5271C30.5999 19.5131 37.2387 19.8016 41.0033 22.0021C50.6813 27.6615 50.2691 34.6623 47.5518 39.2844C44.8328 43.907 38.5418 47.6842 29.3098 42.3742C28.3201 41.8055 26.8432 40.4808 25.8744 39.5904C26.1093 39.2518 26.8291 38.3855 27.532 37.4011C28.616 35.879 29.4482 34.5875 29.4482 34.5875Z" fill="white"/>
</g>
</svg>
