<svg width="33" height="45" viewBox="0 0 33 45" fill="none" xmlns="http://www.w3.org/2000/svg">
    <path fill-rule="evenodd" clip-rule="evenodd"
          d="M0 16.2972C0 7.31093 7.40185 0 16.5 0C25.5981 0 32.9998 7.31093 33 16.2972C33 27.4495 18.2341 43.8217 17.6054 44.5132C17.016 45.1617 15.9851 45.1628 15.3946 44.5132C14.7659 43.8217 0 27.4495 0 16.2972ZM7.17391 16.6935C7.17391 21.0959 11.0357 24.6774 15.7827 24.6774C20.5295 24.6774 24.3913 21.0959 24.3913 16.6936C24.3913 12.2912 20.5295 8.70968 15.7827 8.70968C11.0358 8.70968 7.17391 12.2912 7.17391 16.6935Z"
          fill="#57A0C7"/>
</svg>
